<svg width="432" height="272" fill="none" xmlns="http://www.w3.org/2000/svg"><path d="m380.407 248.754.42-9.426a30.657 30.657 0 0 1 14.251-3.594c-6.844 5.575-5.989 16.323-10.629 23.82a18.387 18.387 0 0 1-13.477 8.462l-5.728 3.494a30.604 30.604 0 0 1 6.491-24.863 29.695 29.695 0 0 1 5.467-5.061c1.372 3.604 3.205 7.168 3.205 7.168ZM90.858 238.425l-13.822-4.169a46.257 46.257 0 0 1 .036-22.337c5.692 12.177 21.956 14.966 31.329 24.622a27.86 27.86 0 0 1 7.476 23.03l3.025 9.75c-13.704-.985-26.287-7.9-34.435-18.922a45.138 45.138 0 0 1-5.448-9.955c5.862-.663 11.84-2.019 11.84-2.019Z" fill="#F2F2F2"/><path d="M332.512 269.968a1.07 1.07 0 0 1-1.077 1.073h-4.327a1.07 1.07 0 0 1-1.076-1.065V139.583c0-2.875-.969-5.207-2.159-5.213H54.488c-1.195.006-2.158 2.338-2.164 5.213v129.586a1.077 1.077 0 0 1-.974 1.067c-.872.086-1.744.161-2.61.231-.022 0-.044.005-.065.005-.474.043-.947.076-1.421.113h-.005c-.248-.445-.485-.901-.727-1.357a1.114 1.114 0 0 1-.119-.498V132.82c0-.793.033-1.592.087-2.381.076-1.082.211-2.16.403-3.228.91-4.982 2.966-8.355 5.302-8.365H326.16c.341.002.678.073.99.209.459.202.874.492 1.222.852a7.524 7.524 0 0 1 1.2 1.636c1.152 2.022 1.976 5.035 2.266 8.543 0 .032.006.064.006.096.075.869.113 1.754.107 2.638l.076 11.492.048 6.854.145 21.504.054 7.636.237 89.662Z" fill="#E6E6E6"/><path d="M232.534 79.09H205.08a1.462 1.462 0 0 0-1.462 1.462v43.208H234V80.552c0-.807-.655-1.46-1.465-1.461h-.001Zm-13.635 24.551a3.25 3.25 0 0 1-3.241-3.23v-4.983a3.235 3.235 0 0 1 3.241-3.23 3.236 3.236 0 0 1 3.242 3.23v4.983a3.25 3.25 0 0 1-3.242 3.23Z" fill="#CCC"/><path d="M203.524 122.378v4.169c0 .449.366.814.818.815h28.934a.821.821 0 0 0 .818-.815v-4.169h-30.57Z" fill="#3F3D56"/><path d="M277.994 11.66H160.641a3.802 3.802 0 0 0-3.803 3.789v78.898a3.8 3.8 0 0 0 3.803 3.789h117.353a3.8 3.8 0 0 0 3.804-3.79V15.45a3.803 3.803 0 0 0-3.804-3.79Z" fill="#E6E6E6"/><path d="M277.015 14.396H161.622a2.035 2.035 0 0 0-2.034 2.031V93.37a2.034 2.034 0 0 0 2.034 2.026h115.393a2.034 2.034 0 0 0 2.034-2.026V16.427c0-1.12-.91-2.028-2.034-2.03Z" fill="#fff"/><path d="M254.538 128.812h-68.652a1.26 1.26 0 0 1-1.236-1.517l1.065-5.041a1.267 1.267 0 0 1 1.236-.999h66.522a1.268 1.268 0 0 1 1.236.999l1.065 5.041a1.258 1.258 0 0 1-1.236 1.517Z" fill="#CCC"/><path d="M189.29 122.163h-1.589a.262.262 0 0 0-.263.262v.74c0 .145.118.262.263.262h1.589a.262.262 0 0 0 .263-.262v-.74a.262.262 0 0 0-.263-.262ZM193.519 122.163h-1.589a.262.262 0 0 0-.263.262v.74c0 .145.118.262.263.262h1.589a.262.262 0 0 0 .263-.262v-.74a.262.262 0 0 0-.263-.262ZM197.748 122.163h-1.589a.262.262 0 0 0-.263.262v.74c0 .145.118.262.263.262h1.589a.262.262 0 0 0 .262-.262v-.74a.262.262 0 0 0-.262-.262ZM201.976 122.163h-1.588a.262.262 0 0 0-.263.262v.74c0 .145.117.262.263.262h1.588a.262.262 0 0 0 .263-.262v-.74a.262.262 0 0 0-.263-.262ZM206.205 122.163h-1.588a.262.262 0 0 0-.263.262v.74c0 .145.117.262.263.262h1.588a.262.262 0 0 0 .263-.262v-.74a.262.262 0 0 0-.263-.262ZM210.434 122.163h-1.589a.262.262 0 0 0-.262.262v.74c0 .145.117.262.262.262h1.589a.262.262 0 0 0 .263-.262v-.74a.262.262 0 0 0-.263-.262ZM214.663 122.163h-1.589a.262.262 0 0 0-.263.262v.74c0 .145.118.262.263.262h1.589a.262.262 0 0 0 .263-.262v-.74a.262.262 0 0 0-.263-.262ZM218.892 122.163h-1.589a.262.262 0 0 0-.263.262v.74c0 .145.118.262.263.262h1.589a.262.262 0 0 0 .263-.262v-.74a.262.262 0 0 0-.263-.262ZM223.121 122.163h-1.589a.262.262 0 0 0-.263.262v.74c0 .145.118.262.263.262h1.589a.262.262 0 0 0 .262-.262v-.74a.262.262 0 0 0-.262-.262ZM227.35 122.163h-1.589a.262.262 0 0 0-.263.262v.74c0 .145.118.262.263.262h1.589a.262.262 0 0 0 .262-.262v-.74a.262.262 0 0 0-.262-.262ZM231.578 122.163h-1.588a.262.262 0 0 0-.263.262v.74c0 .145.117.262.263.262h1.588a.262.262 0 0 0 .263-.262v-.74a.262.262 0 0 0-.263-.262ZM235.807 122.163h-1.589a.262.262 0 0 0-.262.262v.74c0 .145.117.262.262.262h1.589a.262.262 0 0 0 .263-.262v-.74a.262.262 0 0 0-.263-.262ZM240.036 122.163h-1.589a.262.262 0 0 0-.263.262v.74c0 .145.118.262.263.262h1.589a.262.262 0 0 0 .263-.262v-.74a.262.262 0 0 0-.263-.262ZM244.265 122.163h-1.589a.262.262 0 0 0-.263.262v.74c0 .145.118.262.263.262h1.589a.262.262 0 0 0 .263-.262v-.74a.262.262 0 0 0-.263-.262ZM248.494 122.163h-1.589a.262.262 0 0 0-.263.262v.74c0 .145.118.262.263.262h1.589a.262.262 0 0 0 .263-.262v-.74a.262.262 0 0 0-.263-.262ZM252.723 122.163h-1.589a.262.262 0 0 0-.263.262v.74c0 .145.118.262.263.262h1.589a.262.262 0 0 0 .262-.262v-.74a.262.262 0 0 0-.262-.262ZM189.24 124.269h-1.589a.263.263 0 0 0-.263.262v.741c0 .144.118.261.263.261h1.589a.262.262 0 0 0 .263-.261v-.741a.263.263 0 0 0-.263-.262ZM193.469 124.269h-1.589a.263.263 0 0 0-.263.262v.741c0 .144.118.261.263.261h1.589a.262.262 0 0 0 .263-.261v-.741a.263.263 0 0 0-.263-.262ZM197.698 124.269h-1.589a.263.263 0 0 0-.263.262v.741c0 .144.118.261.263.261h1.589a.261.261 0 0 0 .262-.261v-.741a.262.262 0 0 0-.262-.262ZM201.926 124.269h-1.588a.262.262 0 0 0-.263.262v.741c0 .144.117.261.263.261h1.588a.262.262 0 0 0 .263-.261v-.741a.262.262 0 0 0-.263-.262ZM206.155 124.269h-1.589a.262.262 0 0 0-.262.262v.741c0 .144.117.261.262.261h1.589a.262.262 0 0 0 .263-.261v-.741a.263.263 0 0 0-.263-.262ZM210.384 124.269h-1.589a.262.262 0 0 0-.262.262v.741c0 .144.117.261.262.261h1.589a.262.262 0 0 0 .263-.261v-.741a.263.263 0 0 0-.263-.262ZM214.613 124.269h-1.589a.263.263 0 0 0-.263.262v.741c0 .144.118.261.263.261h1.589a.262.262 0 0 0 .263-.261v-.741a.263.263 0 0 0-.263-.262ZM218.842 124.269h-1.589a.263.263 0 0 0-.263.262v.741c0 .144.118.261.263.261h1.589a.262.262 0 0 0 .263-.261v-.741a.263.263 0 0 0-.263-.262ZM223.071 124.269h-1.589a.263.263 0 0 0-.263.262v.741c0 .144.118.261.263.261h1.589a.262.262 0 0 0 .263-.261v-.741a.263.263 0 0 0-.263-.262ZM227.3 124.269h-1.589a.263.263 0 0 0-.263.262v.741c0 .144.118.261.263.261h1.589a.261.261 0 0 0 .262-.261v-.741a.262.262 0 0 0-.262-.262ZM231.528 124.269h-1.588a.262.262 0 0 0-.263.262v.741c0 .144.117.261.263.261h1.588a.262.262 0 0 0 .263-.261v-.741a.262.262 0 0 0-.263-.262ZM235.757 124.269h-1.589a.262.262 0 0 0-.262.262v.741c0 .144.117.261.262.261h1.589a.262.262 0 0 0 .263-.261v-.741a.263.263 0 0 0-.263-.262ZM239.986 124.269h-1.589a.262.262 0 0 0-.262.262v.741c0 .144.117.261.262.261h1.589a.262.262 0 0 0 .263-.261v-.741a.263.263 0 0 0-.263-.262ZM244.215 124.269h-1.589a.263.263 0 0 0-.263.262v.741c0 .144.118.261.263.261h1.589a.262.262 0 0 0 .263-.261v-.741a.263.263 0 0 0-.263-.262ZM248.444 124.269h-1.589a.263.263 0 0 0-.263.262v.741c0 .144.118.261.263.261h1.589a.262.262 0 0 0 .263-.261v-.741a.263.263 0 0 0-.263-.262ZM252.673 124.269h-1.589a.263.263 0 0 0-.263.262v.741c0 .144.118.261.263.261h1.589a.261.261 0 0 0 .262-.261v-.741a.262.262 0 0 0-.262-.262ZM224.339 126.797H207.95a.262.262 0 0 0-.263.262v.741c0 .144.117.261.263.261h16.389a.262.262 0 0 0 .263-.261v-.741a.263.263 0 0 0-.263-.262Z" fill="#E6E6E6"/><path d="M271.214 24.997H163.242a.428.428 0 0 1 0-.855h107.972a.429.429 0 0 1 0 .855Z" fill="#CACACA"/><path d="M170.591 21.957c1.39 0 2.517-1.147 2.517-2.563 0-1.415-1.127-2.562-2.517-2.562-1.389 0-2.516 1.147-2.516 2.563 0 1.415 1.127 2.562 2.516 2.562ZM179.284 21.957c1.39 0 2.517-1.147 2.517-2.563 0-1.415-1.127-2.562-2.517-2.562s-2.516 1.147-2.516 2.563c0 1.415 1.126 2.562 2.516 2.562ZM187.977 21.957c1.39 0 2.516-1.147 2.516-2.563 0-1.415-1.126-2.562-2.516-2.562-1.39 0-2.516 1.147-2.516 2.563 0 1.415 1.126 2.562 2.516 2.562Z" fill="#CCC"/><path d="m217.117 31.484-.349-1.015 44.598-23.087.348 1.015-44.597 23.087ZM351.678 74.246l-.349-1.015 26.836-22.97.348 1.014-26.835 22.971ZM300.12 79.593l-44.598-23.087.349-1.015 44.597 23.087-.348 1.015ZM322.949 63.528l-26.145-42.765.826-.688 26.145 42.765-.826.688ZM343.353 7.805l-25.463-.117V6.615l25.463.117v1.073Z" fill="#3F3D56"/><path d="M389.479 14.457h-28.527c-3.865 0-6.997-3.121-6.997-6.971s3.132-6.971 6.997-6.971h28.527c3.864 0 6.997 3.12 6.997 6.97 0 3.851-3.133 6.972-6.997 6.972ZM425.003 55.213h-28.527c-3.864 0-6.997-3.121-6.997-6.971s3.133-6.972 6.997-6.972h28.527c3.864 0 6.997 3.121 6.997 6.971s-3.133 6.972-6.997 6.972Z" fill="#6C63FF"/><path d="m378.877 83.953-25.463-.117v-1.072l25.463.116v1.073Z" fill="#3F3D56"/><path d="M425.003 90.606h-28.527c-3.864 0-6.997-3.121-6.997-6.971s3.133-6.972 6.997-6.972h28.527c3.864 0 6.997 3.121 6.997 6.972 0 3.85-3.133 6.97-6.997 6.97ZM341.575 85.801h-28.527c-3.864 0-6.997-3.12-6.997-6.971 0-3.85 3.133-6.971 6.997-6.971h28.527c3.865 0 6.997 3.12 6.997 6.97 0 3.851-3.132 6.972-6.997 6.972ZM302.822 13.943h-28.527c-3.865 0-6.997-3.121-6.997-6.972 0-3.85 3.132-6.971 6.997-6.971h28.527c3.864 0 6.997 3.121 6.997 6.971s-3.133 6.972-6.997 6.972Z" fill="#6C63FF"/><path d="M166.469 133.625h-32.294a4.298 4.298 0 0 0-4.306 4.29 4.298 4.298 0 0 0 4.306 4.29h11.841v33.248h8.612v-33.248h11.841a4.298 4.298 0 0 0 4.306-4.29 4.298 4.298 0 0 0-4.306-4.29Z" fill="#3F3D56"/><path d="M187.784 193.866h-86.379c-17.309-.063-31.953-12.763-34.402-29.835l-3.058-11.205a251.065 251.065 0 0 0-28.624-65.908c-5.785-9.36-8.762-18.42-2-27.143l.17-.22c5.424-7.033 32.42-8.556 41.222-8.852a30.62 30.62 0 0 1 1.047-.018h53.727c.35 0 .699.006 1.046.018 9.666.28 18.397 5.825 22.734 14.437a26.906 26.906 0 0 1-1.537 27.633c-18.873 28.245-24.651 45.956-18.736 57.425 5.723 11.094 23.263 16.766 55.202 17.849 8.583.292 12.522 6.95 12.549 13.014.027 5.906-3.76 12.428-12.138 12.788-.273.012-.547.017-.823.017Z" fill="#3F3D56"/><path d="M116.079 270.283h32.295a4.298 4.298 0 0 0 4.306-4.29 4.298 4.298 0 0 0-4.306-4.29h-11.841v-72.395h-8.612v72.395h-11.842a4.298 4.298 0 0 0-4.306 4.29 4.298 4.298 0 0 0 4.306 4.29Z" fill="#3F3D56"/><path d="m145.309 241.097 5.563 3.011 14.728-20.287-8.212-4.444-12.079 21.72Z" fill="#A0616A"/><path d="m147.987 233.868 10.1 3.151-1.608 4.215 6.926 10.015a2.81 2.81 0 0 1-.724 3.918 2.837 2.837 0 0 1-2.609.313l-11.757-4.45-.436-4.937-2.382 3.87-4.433-1.678 6.923-14.417Z" fill="#2F2E41"/><path d="M159.365 36.506c.499 3.404-1.867 6.566-5.283 7.062a6.275 6.275 0 0 1-1.101.062l-21.449 45.472-6.728-9.346 22.081-42.998c.339-3.442 3.415-5.958 6.87-5.62a6.274 6.274 0 0 1 5.61 5.368Z" fill="#A0616A"/><path d="M88.183 98.296s-.575 7.944 8.442 9.502c9.018 1.558 33.123-13.629 37.082-15.96 3.959-2.332 11.337-31.672 11.337-31.672l-6.416-10.812c-7.922 9.983-14.143 19.19-14.52 25.724L88.183 98.296Z" fill="#6C63FF"/><path d="m98.593 125.66 1.947 8.337s.019 7.687 1.386 9.104c1.357 1.411 31.194-1.422 31.194-1.422s-3.163-12.387-3.121-21.76l-31.406 5.741Z" fill="#A0616A"/><path d="m161.625 232.296-10.765-5.899c-.204-13.956 8.221-32.842 18.214-52.624-22.349 3.83-43.434 5.057-61.671.424-6.23-1.639-9.985-7.958-8.43-14.188.07-.294.152-.585.246-.873 2.182-6.635-2.712-10.794 1.79-18.091 11.839-4.029 23.086-5.166 33.371-1.609l6.444 14.196 31.94-4.118c6.459-.77 12.321 3.823 13.093 10.258l.01.088c.043.345.071.692.084 1.041-6.458 30.166-13.7 57.309-24.326 71.395Z" fill="#2F2E41"/><path d="m94.257 72.88 12.305-.724a2.497 2.497 0 0 1 2.456 1.535l3.478 8.399 14.452 11.9s5.722 7.255 5.735 16.624c.013 9.369 2.03 31.055 2.03 31.055s-8.351-11.711-13.505-8.597c-.877.53-1.186 1.614-2.104 2.162-.458.273-1.517.007-1.979.281-7.103 4.201-14.51 8.305-15.202 7.585-1.359-1.413-3.008-8.632-3.008-8.632L87.652 93.236a15.224 15.224 0 0 1 2.18-12.85c.786-1.103 1.61-1.924 2.377-2.06 1.72-.365.805-4.207 2.048-5.446Z" fill="#6C63FF"/><path d="m198.929 258.562 5.194-3.598-11.767-22.117-7.665 5.31 14.238 20.405Z" fill="#A0616A"/><path d="m199.714 243.722-8.14 7.249c-12.944-14.369-22.729-34.522-31.021-57.408-21.727-6.339-38.111-16.564-52.415-28.704-4.853-4.091-8.49-9.346-4.352-14.329.194-.233.396-.458.606-.676 4.887-5.003 17.278-4.05 24.536-8.634l16.213 17.266-1.02 4.629 30.452 10.277c6.13 2.141 9.358 8.827 7.21 14.935l-.032.089c-.114.33-.242.653-.384.972l18.347 54.334ZM195.901 257.104l8.314-6.524 2.583 3.703 12.207-.037a2.822 2.822 0 0 1 2.836 2.808 2.816 2.816 0 0 1-1.214 2.322l-10.327 7.152-4.335-2.43 1.86 4.144-3.894 2.697-8.03-13.835Z" fill="#2F2E41"/><path d="M112.427 176.79c-3.178-1.344-4.661-5.001-3.312-8.167a6.22 6.22 0 0 1 .519-.969l-27.857-41.883 11.511-.872 25.407 41.135a6.247 6.247 0 0 1 1.251 8.768 6.3 6.3 0 0 1-7.519 1.988Z" fill="#A0616A"/><path d="M96.41 84.091s-6.514-4.616-12.534 2.251c-6.02 6.868-5.518 35.279-5.575 39.861-.017 1.434 2.062 4.53 4.927 8.106a149.498 149.498 0 0 0 4.215 5c.859.979.119 3.017.981 3.968.858.947 3.318.807 4.134 1.686a348.938 348.938 0 0 0 7.018 7.343l12.605.155c.143-9.337-6.275-17.67-14.52-25.725l-1.25-42.645Z" fill="#6C63FF"/><path d="M83.704 43.441c-1.193.858-2.449 1.742-3.905 1.955-1.456.213-3.161-.489-3.564-1.899-.493-1.724 1.07-3.295 2.475-4.415l4.454-3.554a10.773 10.773 0 0 1 2.731-1.76 3.652 3.652 0 0 1 3.151.105 3.368 3.368 0 0 1 1.488 2.936 6.252 6.252 0 0 1-1.104 3.215 11.352 11.352 0 0 1-7.369 4.99" fill="#2F2E41"/><path d="M117.489 135.77H85.195a4.298 4.298 0 0 0-4.306 4.29 4.298 4.298 0 0 0 4.306 4.29h11.841v33.248h8.612V144.35h11.841a4.298 4.298 0 0 0 4.306-4.29 4.298 4.298 0 0 0-4.306-4.29Z" fill="#3F3D56"/><path d="M85.683 34.44c.13-3.216-3.31-5.763-6.534-5.562-3.224.201-5.995 2.46-7.823 5.115-1.828 2.652-2.926 5.723-4.366 8.603-1.44 2.879-3.357 5.698-6.218 7.19-2.86 1.49-6.843 1.224-8.82-1.32a7.06 7.06 0 0 0-.73 6.363 9.71 9.71 0 0 0 4.273 4.94c.777.46 1.608.823 2.473 1.084.357-.96.86-1.86 1.49-2.668a8.254 8.254 0 0 0-.321 2.953 9.934 9.934 0 0 0 4.031-.063 8.575 8.575 0 0 0 5.954-4.838c1.21-2.852.593-6.103.852-9.188.256-3.085 2.122-6.608 5.23-6.658 2.366-.039 2.053.156 3.552 1.98" fill="#2F2E41"/><path d="M107.17 51.342c0 7.7-6.265 13.943-13.994 13.943s-15.07-8.924-15.07-16.624c0-7.7 7.341-11.261 15.07-11.261s13.994 6.242 13.994 13.942Z" fill="#2F2E41"/><path d="M100.072 68.051c7.224-1.473 11.882-8.501 10.404-15.698-1.478-7.198-8.533-11.839-15.757-10.366-7.224 1.473-11.882 8.501-10.403 15.699 1.478 7.197 8.532 11.838 15.756 10.365Z" fill="#A0616A"/><path d="M114.167 52.951c-3.952 1.075-7.942 2.202-9.483 0-.3-1.46-.867-2.853-1.674-4.108a16.597 16.597 0 0 1-.985 4.108c-4.994 1.081-9.66 1.34-13.693 0-.555 1-.877 2.11-.942 3.25a4.6 4.6 0 0 0-.624-.327 1.036 1.036 0 0 0-.85-.075.731.731 0 0 0-.35.541c-.028.224-.017.45.031.67.057.768.287 1.512.673 2.178.31.464.8.777 1.351.863.56 3.137 5.017 7.38 5.017 7.38-13.456.535-13.456-8.56-13.456-17.161l1.614-3.218h5.383v-6.971h15.071c7.133.002 12.916 5.763 12.917 12.87Z" fill="#2F2E41"/><path d="M236.798 271.835.644 272a.64.64 0 1 1-.007-1.277h.007l236.154-.165a.639.639 0 1 1 0 1.277ZM394.504 271.835 272.457 272a.64.64 0 1 1-.007-1.277h.007l122.047-.165a.64.64 0 1 1 .004 1.277h-.004Z" fill="#CACACA"/><path d="M242.195 79.366h-46.263c-4.018-.004-7.275-3.249-7.279-7.252V41.572c.004-4.003 3.261-7.247 7.279-7.252h46.264c4.018.005 7.274 3.25 7.278 7.252v30.542c-.004 4.004-3.26 7.248-7.279 7.252Zm-46.263-43.973c-3.424.004-6.199 2.768-6.203 6.18v30.541c.004 3.411 2.779 6.176 6.203 6.18h46.264c3.423-.004 6.198-2.769 6.202-6.18V41.572c-.004-3.41-2.779-6.175-6.202-6.179h-46.264Z" fill="#E6E6E6"/><path d="M209.64 43.973h-12.375v1.073h12.375v-1.073ZM224.715 48.263h-27.45v1.073h27.45v-1.073ZM224.715 52.017h-27.45v1.072h27.45v-1.072ZM232.251 55.77h-34.986v1.073h34.986v-1.072ZM215.565 59.525h-18.3v1.072h18.3v-1.072ZM230.636 63.278h-33.371v1.073h33.371v-1.073ZM203.186 67.032h-5.921v1.073h5.921v-1.073Z" fill="#E6E6E6"/><path d="M196.862 20.892a.201.201 0 0 1-.144-.06l-1.148-1.17a.2.2 0 0 1 0-.28l1.148-1.17a.203.203 0 0 1 .285-.003.2.2 0 0 1 .003.283l-1.011 1.03 1.011 1.029a.2.2 0 0 1-.144.34ZM198.792 20.892a.2.2 0 0 1-.144-.341l1.011-1.03-1.011-1.029a.2.2 0 0 1 .003-.283.202.202 0 0 1 .285.003l1.148 1.17a.2.2 0 0 1 0 .28l-1.148 1.17a.203.203 0 0 1-.144.06ZM258.872 17.989h-2.135a.44.44 0 0 0-.441.439v2.13c0 .242.197.439.441.439h2.135a.441.441 0 0 0 .443-.44v-2.13a.441.441 0 0 0-.443-.438ZM253.639 17.989h-2.135a.44.44 0 0 0-.441.439v2.13c0 .242.197.439.441.439h2.135a.441.441 0 0 0 .443-.44v-2.13a.441.441 0 0 0-.443-.438ZM263.803 18.089h-2.135a.44.44 0 0 0-.441.44v2.129c0 .242.197.439.441.439h2.135a.442.442 0 0 0 .443-.44v-2.129a.441.441 0 0 0-.443-.439ZM231.616 18.9h-17.069a.537.537 0 0 0-.538.535c0 .294.24.535.538.535h17.069c.296 0 .537-.24.537-.535a.537.537 0 0 0-.537-.536Z" fill="#CCC"/></svg>
